# xmcd
#
# Track frame offsets: 
#        150
#        22097
#        39362
#        54575
#
# Disc length: 939 seconds
#
# Revision: 0
# Processed by: cddbd v1.4PL0 Copyright (c) Steve Scherf et al.
# Submitted via: ExactAudioCopy v0.90a11
#
DISCID=2c03a904
DTITLE=Mary Chapin Carpenter - Stones In The Road (Australian Bonus Di
DTITLE=sc)
DYEAR=1900
DGENRE=
TTITLE0=Hometown Girl
TTITLE1=This Shirt
TTITLE2=Down at the Twist and Shout
TTITLE3=I Feel Lucky
EXTD=
EXTT0=
EXTT1=
EXTT2=
EXTT3=
PLAYORDER=
